# xmcd
#
# Track frame offsets:
# 150
# 15904
# 34780
# 49686
# 65959
# 80012
# 94526
# 111432
# 130542
# 143845
#
# Disc length: 2115 seconds
#
#
# Revision: 0
# Processed by: cddbd v1.5.2PL0 Copyright (c) Steve Scherf et al.
# Submitted via: FreeRIP 2.945 
#
DISCID=8008410a
DTITLE=LEEDICRISTIAN - DE CORPO E ALMA
DYEAR=1900
DGENRE=Country
TTITLE0=O show vai começar
TTITLE1=Corpo e alma
TTITLE2=Ciumenta de mais
TTITLE3=Vai embora, vai de vez
TTITLE4=Beijo no seu beijo
TTITLE5=Dias azuis
TTITLE6=Tocando em frente
TTITLE7=Música e lágrima
TTITLE8=Para de pegar no meu pé
TTITLE9=Não olhe assim
EXTD=
EXTT0=
EXTT1=
EXTT2=
EXTT3=
EXTT4=
EXTT5=
EXTT6=
EXTT7=
EXTT8=
EXTT9=
PLAYORDER=
